<svg width="19" height="18" viewBox="0 0 19 18" fill="none" xmlns="http://www.w3.org/2000/svg">
<path d="M17.466 1.90695L13.7377 0.112022C13.5272 0.0105057 13.2903 -0.0229946 13.0599 0.0161646C12.8294 0.0553237 12.6169 0.165202 12.4517 0.330569L0.247301 11.4571C0.0992264 11.5914 0.0105894 11.7791 0.000888693 11.9788C-0.00881197 12.1785 0.0612182 12.3739 0.195574 12.522C0.211739 12.5395 0.227904 12.5563 0.245361 12.5718L1.24176 13.477C1.37196 13.5955 1.53955 13.6647 1.71542 13.6725C1.8913 13.6803 2.06435 13.6262 2.20453 13.5197L16.9047 2.3725C17.0158 2.28824 17.1481 2.23665 17.2869 2.22353C17.4257 2.21042 17.5653 2.23629 17.6902 2.29825C17.815 2.36021 17.9201 2.45579 17.9936 2.57423C18.0671 2.69267 18.106 2.82927 18.1061 2.96865V2.92533C18.1061 2.71254 18.046 2.50407 17.9328 2.32392C17.8195 2.14376 17.6577 1.99923 17.466 1.90695V1.90695Z" fill="#0065A9"/>
<path d="M17.466 16.093L13.7377 17.8886C13.5271 17.9898 13.2903 18.0231 13.0599 17.984C12.8296 17.9448 12.617 17.8351 12.4517 17.67L0.247301 6.54286C0.0992264 6.4085 0.0105894 6.22082 0.000888693 6.02111C-0.00881197 5.8214 0.0612182 5.62601 0.195574 5.47793C0.211739 5.46047 0.227904 5.44366 0.245361 5.42814L1.24176 4.52292C1.37209 4.40392 1.54006 4.33446 1.71637 4.32666C1.89269 4.31886 2.06614 4.37322 2.20647 4.48024L16.9047 15.6274C17.0158 15.7117 17.1481 15.7633 17.2869 15.7764C17.4257 15.7895 17.5653 15.7636 17.6902 15.7017C17.815 15.6397 17.9201 15.5442 17.9936 15.4257C18.0671 15.3073 18.106 15.1707 18.1061 15.0313V15.0778C18.1054 15.2901 18.045 15.4978 17.9318 15.6773C17.8186 15.8569 17.6572 16.0009 17.466 16.093V16.093Z" fill="#007ACC"/>
<path d="M13.7376 17.8886C13.527 17.9899 13.2902 18.0232 13.0598 17.9841C12.8294 17.9449 12.6169 17.8352 12.4516 17.6701C12.5444 17.7617 12.6622 17.8239 12.7903 17.8489C12.9183 17.8738 13.0509 17.8605 13.1714 17.8104C13.2919 17.7604 13.3949 17.6759 13.4676 17.5675C13.5402 17.4591 13.5793 17.3318 13.5799 17.2013V0.798622C13.58 0.667551 13.5412 0.539396 13.4684 0.430393C13.3956 0.321389 13.2921 0.236441 13.171 0.18631C13.0499 0.136178 12.9166 0.123119 12.7881 0.148786C12.6596 0.174453 12.5415 0.237692 12.449 0.330491C12.6142 0.165185 12.8267 0.0552991 13.0571 0.0160311C13.2875 -0.0232369 13.5244 0.0100532 13.735 0.111297L17.4626 1.90364C17.655 1.99546 17.8174 2.13979 17.9313 2.31998C18.0451 2.50018 18.1057 2.70888 18.106 2.92202V15.0779C18.106 15.2909 18.0459 15.4995 17.9325 15.6798C17.8192 15.8601 17.6572 16.0047 17.4652 16.0969L13.7376 17.8886Z" fill="#1F9CF0"/>
</svg>
