<svg width="16" height="18" viewBox="0 0 16 18" fill="none" xmlns="http://www.w3.org/2000/svg">
<path d="M1.44386 16.2006L0 0H15.8709L14.4251 16.1981L7.92579 18L1.44386 16.2006Z" fill="#1572B6"/>
<path d="M7.93555 16.623L13.1877 15.167L14.4233 1.32495H7.93555V16.623Z" fill="#33A9DC"/>
<path d="M7.93555 7.19432H10.5648L10.7461 5.15968H7.93555V3.17261H12.9177L12.8701 3.70554L12.3822 9.18139H7.93555V7.19432V7.19432Z" fill="white"/>
<path d="M7.94753 12.3542L7.93853 12.3568L5.72581 11.759L5.58439 10.1743H3.5896L3.86796 13.2941L7.93789 14.4242L7.94753 14.4217V12.3542V12.3542Z" fill="#EBEBEB"/>
<path d="M10.3957 9.09692L10.1566 11.7577L7.94067 12.3556V14.423L12.0138 13.2941L12.044 12.9586L12.3892 9.09692H10.3957V9.09692Z" fill="white"/>
<path d="M7.94249 3.17261V5.15968H3.14292L3.10306 4.71289L3.01242 3.70554L2.96484 3.17261H7.94249V3.17261Z" fill="#EBEBEB"/>
<path d="M7.9355 7.19409V9.18116H5.75043L5.71057 8.73438L5.62057 7.72702L5.573 7.19409H7.9355V7.19409Z" fill="#EBEBEB"/>
</svg>
