<svg width="18" height="18" viewBox="0 0 18 18" fill="none" xmlns="http://www.w3.org/2000/svg">
<path d="M0 0H18V18H0V0Z" fill="#F5DE19"/>
<path d="M12.0916 14.0625C12.245 14.374 12.4833 14.6358 12.779 14.8178C13.0747 14.9998 13.4158 15.0945 13.763 15.091C14.4638 15.091 14.9118 14.7407 14.9118 14.2553C14.9118 13.6768 14.4515 13.4698 13.6801 13.1323L13.2571 12.951C12.0357 12.4309 11.2257 11.7797 11.2257 10.4027C11.2257 9.13433 12.19 8.16812 13.7026 8.16812C14.1923 8.13276 14.6815 8.24235 15.1093 8.48322C15.5371 8.7241 15.8845 9.08559 16.1082 9.52262L14.7858 10.368C14.6997 10.1513 14.5497 9.96589 14.3558 9.83638C14.1619 9.70687 13.9332 9.63937 13.7 9.64283C13.5983 9.63265 13.4956 9.64377 13.3984 9.67548C13.3012 9.70719 13.2117 9.7588 13.1355 9.82702C13.0594 9.89524 12.9983 9.97857 12.9561 10.0717C12.914 10.1648 12.8917 10.2657 12.8907 10.368C12.8907 10.8752 13.205 11.0809 13.9308 11.3965L14.3538 11.5778C15.7913 12.1943 16.6038 12.8224 16.6038 14.2348C16.6038 15.7577 15.4075 16.5921 13.801 16.5921C13.175 16.632 12.5509 16.4899 12.0039 16.1829C11.457 15.876 11.0105 15.4173 10.7185 14.8622L12.0916 14.0625ZM6.11626 14.209C6.38176 14.6803 6.62347 15.0788 7.20461 15.0788C7.76004 15.0788 8.11104 14.8615 8.11104 14.0162V8.26454H9.8024V14.0387C9.8024 15.7898 8.77383 16.587 7.27662 16.587C6.74738 16.6159 6.22178 16.484 5.76891 16.2086C5.31604 15.9333 4.95709 15.5273 4.73926 15.0441L6.11626 14.209Z" fill="black"/>
</svg>
