<svg width="18" height="18" viewBox="0 0 18 18" fill="none" xmlns="http://www.w3.org/2000/svg">
<path fill-rule="evenodd" clip-rule="evenodd" d="M4.30181 2.9441C4.13076 2.94356 3.96037 2.96526 3.79492 3.00867V3.03127H3.81946C3.93796 3.21015 4.07007 3.37961 4.21464 3.53816C4.31408 3.73575 4.4006 3.93269 4.4994 4.13028L4.52394 4.1051C4.61566 4.03229 4.68746 3.93743 4.73262 3.82937C4.77779 3.72132 4.79485 3.60358 4.78222 3.48715C4.72815 3.40377 4.67857 3.31755 4.63371 3.22886C4.55945 3.10553 4.39867 3.04354 4.29987 2.94475" fill="#5D87A1"/>
<path fill-rule="evenodd" clip-rule="evenodd" d="M16.5672 13.7199C15.7526 13.6627 14.9353 13.7807 14.1703 14.066C13.9849 14.1403 13.6892 14.1403 13.6634 14.3747C13.7628 14.4735 13.7744 14.633 13.8616 14.7705C14.0307 15.0568 14.2481 15.3118 14.5041 15.524C14.7624 15.7216 15.0207 15.9186 15.2951 16.0916C15.7761 16.3893 16.3205 16.5617 16.7893 16.8581C17.0618 17.0311 17.333 17.2533 17.6055 17.4392C17.7411 17.538 17.8269 17.6975 18 17.7621V17.7246C17.9492 17.5874 17.8863 17.455 17.8121 17.3288C17.6888 17.2061 17.5648 17.0944 17.4408 16.9711C17.0786 16.4922 16.6453 16.0715 16.1558 15.7236C15.76 15.4511 14.8947 15.0779 14.7353 14.6258L14.7101 14.6007C14.9997 14.5596 15.2851 14.4931 15.5631 14.4018C15.9828 14.2907 16.3657 14.3159 16.7977 14.2081C16.9959 14.1584 17.3543 14.035 17.3543 14.035V13.8413C17.1334 13.6218 16.9752 13.328 16.7428 13.1207C16.1104 12.5686 15.4364 12.0661 14.7269 11.6175C14.3478 11.3727 13.859 11.2152 13.4554 11.0066C13.3095 10.933 13.068 10.8968 12.9795 10.7741C12.7788 10.4797 12.6108 10.1642 12.4785 9.83334C12.1172 9.1378 11.7831 8.42848 11.477 7.70699C11.2966 7.23098 11.0885 6.76591 10.8538 6.31418C9.72148 4.38895 8.08699 2.80781 6.12526 1.73992C5.63028 1.50033 5.10401 1.33164 4.56198 1.23884C4.25591 1.22593 3.95113 1.20203 3.64571 1.19041C3.44854 1.06125 3.26101 0.917951 3.08458 0.761656C2.38591 0.319339 0.590817 -0.631156 0.0768265 0.627347C-0.252489 1.42222 0.56628 2.20354 0.847167 2.60712C1.08401 2.89167 1.29269 3.19853 1.47028 3.52339C1.55616 3.73131 1.5807 3.9515 1.664 4.16911C1.84324 4.72772 2.05607 5.27499 2.30132 5.80794C2.43249 6.07134 2.5836 6.32434 2.75332 6.56472C2.85212 6.69967 3.02259 6.75843 3.05939 6.9812C2.92398 7.27227 2.82925 7.58059 2.77786 7.89748C2.56442 8.57154 2.48586 9.28105 2.54669 9.98548C2.60751 10.6899 2.80653 11.3754 3.13236 12.0029C3.32608 12.3084 3.79228 12.9806 4.4154 12.7236C4.96491 12.504 4.84287 11.8073 5.00171 11.1971C5.03787 11.0492 5.01398 10.9524 5.08695 10.8549V10.9737C5.08695 10.9737 5.39883 11.6588 5.5538 12.0068C5.97525 12.6454 6.4988 13.2104 7.10352 13.6792C7.34272 13.8881 7.53542 14.1448 7.66917 14.4328V14.6543H7.94489C7.93915 14.5544 7.91146 14.457 7.86381 14.3691C7.81615 14.2811 7.7497 14.2048 7.66917 14.1454C7.44307 13.9127 7.23599 13.6622 7.04993 13.3964C6.54449 12.6766 6.09875 11.9166 5.71717 11.1241C5.52345 10.7367 5.36009 10.3118 5.20511 9.92503C5.13408 9.77587 5.13408 9.55051 5.01463 9.47303C4.79405 9.73401 4.60264 10.0183 4.44381 10.3209C4.251 10.9324 4.13877 11.5664 4.10998 12.207C4.06284 12.2199 4.08608 12.207 4.06284 12.2315C3.68251 12.1314 3.55143 11.7201 3.40808 11.3714C3.03777 10.296 3.00041 9.13393 3.30089 8.03695C3.38354 7.77544 3.74192 6.9515 3.59857 6.70161C3.52689 6.46334 3.28862 6.32709 3.15819 6.13919C2.99167 5.8864 2.84838 5.61906 2.73008 5.34044C2.44661 4.64564 2.30326 3.87078 1.99461 3.17083C1.82375 2.83419 1.62481 2.51256 1.3999 2.20935C1.15112 1.90647 0.931663 1.58064 0.744498 1.23626C0.685092 1.09872 0.601795 0.874011 0.696715 0.724204C0.703121 0.682591 0.72291 0.644199 0.753087 0.614838C0.783263 0.585477 0.822183 0.566747 0.863956 0.561483C1.01764 0.424591 1.45866 0.598935 1.61299 0.673838C2.02777 0.837126 2.42285 1.04658 2.79078 1.29825C2.95737 1.42352 3.34997 1.74056 3.34997 1.74056H3.4662C3.86138 1.82644 4.30563 1.76445 4.67756 1.87616C5.3038 2.08492 5.90143 2.37126 6.45651 2.72851C8.09255 3.77144 9.42257 5.2298 10.3108 6.95473C10.4593 7.2382 10.5219 7.49842 10.6575 7.79416C10.9158 8.40114 11.2387 9.02102 11.497 9.61121C11.7248 10.1951 12.0195 10.7507 12.3752 11.2668C12.5598 11.5251 13.3018 11.662 13.6356 11.7976C13.9255 11.8979 14.21 12.0132 14.4879 12.1431C14.9083 12.4014 15.3274 12.699 15.7232 12.9825C15.9201 13.131 16.5381 13.4397 16.5755 13.687" fill="#00758F"/>
</svg>
