<svg width="18" height="18" viewBox="0 0 18 18" fill="none" xmlns="http://www.w3.org/2000/svg">
<path d="M17.4129 10.7824C17.308 10.4646 17.0331 10.2432 16.6776 10.1901C16.51 10.1651 16.318 10.1757 16.0908 10.2226C15.6949 10.3043 15.4011 10.3354 15.1867 10.3414C15.9959 8.97513 16.6539 7.41713 17.0327 5.95053C17.6453 3.57907 17.318 2.49872 16.9355 2.01006C15.9232 0.716622 14.4463 0.0217758 12.6647 0.000514756C11.7142 -0.011107 10.8798 0.176551 10.4446 0.3115C10.0393 0.239992 9.60355 0.200068 9.14633 0.192684C8.28926 0.179012 7.532 0.365849 6.88494 0.749847C6.52671 0.628707 5.95177 0.457935 5.28783 0.348963C3.72627 0.0926003 2.4677 0.292358 1.54712 0.9427C0.432382 1.73011 -0.0843777 3.0982 0.0111944 5.00896C0.0415478 5.61562 0.380904 7.46143 0.915233 9.21194C1.22232 10.2181 1.54978 11.0537 1.88852 11.6956C2.36891 12.6058 2.88294 13.1419 3.45999 13.3344C3.78342 13.4421 4.37107 13.5176 4.98915 13.0028C5.06749 13.0977 5.17202 13.192 5.31073 13.2796C5.4869 13.3907 5.70232 13.4814 5.91746 13.5353C6.69277 13.7291 7.41899 13.6806 8.03857 13.4089C8.0424 13.5191 8.04534 13.6244 8.0478 13.7153C8.0519 13.8628 8.056 14.0074 8.0614 14.1426C8.09811 15.0569 8.16032 15.7678 8.34463 16.2652C8.35475 16.2926 8.36835 16.3343 8.38271 16.3785C8.47466 16.66 8.62841 17.1313 9.01958 17.5004C9.42464 17.8828 9.9146 18 10.3633 18C10.5884 18 10.8031 17.9705 10.9915 17.9301C11.6628 17.7862 12.4252 17.5671 12.9768 16.7817C13.4983 16.0393 13.7518 14.921 13.7976 13.1591C13.8036 13.1093 13.8091 13.0617 13.8143 13.0164L13.8253 12.9233L13.9481 12.9341L13.9798 12.9362C14.6635 12.9674 15.4996 12.8224 16.0131 12.5838C16.4188 12.3956 17.719 11.7091 17.4129 10.7824" fill="black"/>
<path d="M16.2436 10.9625C14.2105 11.3819 14.0707 10.6936 14.0707 10.6936C16.2173 7.50831 17.1147 3.46509 16.3403 2.47553C14.2276 -0.223803 10.5705 1.05282 10.5095 1.0859L10.4899 1.08946C10.0882 1.00606 9.63867 0.956424 9.1334 0.948152C8.2135 0.933112 7.51564 1.18934 6.9861 1.59091C6.9861 1.59091 0.462174 -1.09674 0.765639 4.97107C0.830174 6.26191 2.61583 14.7384 4.74562 12.1781C5.52408 11.2418 6.27628 10.4503 6.27628 10.4503C6.64982 10.6984 7.09705 10.825 7.56589 10.7796L7.60233 10.7487C7.59098 10.8649 7.59618 10.9786 7.61689 11.1132C7.0682 11.7262 7.22947 11.8338 6.13265 12.0596C5.02277 12.2884 5.67475 12.6955 6.10045 12.802C6.61653 12.931 7.81043 13.1138 8.61711 11.9845L8.58498 12.1134C8.79992 12.2856 8.95087 13.2334 8.92557 14.0927C8.90028 14.9519 8.88339 15.5418 9.05273 16.0025C9.2222 16.4633 9.39099 17.5 10.8329 17.1911C12.0377 16.9329 12.662 16.2638 12.7489 15.1477C12.8105 14.3543 12.9501 14.4716 12.9588 13.7622L13.0707 13.4264C13.1997 12.3508 13.0912 12.0038 13.8335 12.1652L14.0139 12.1811C14.5602 12.2059 15.2752 12.0932 15.6949 11.8981C16.5985 11.4788 17.1345 10.7785 16.2435 10.9625H16.2436" fill="#336791"/>
<path d="M7.36813 5.54843C7.18492 5.52293 7.019 5.54652 6.93505 5.6101C6.88788 5.64585 6.87325 5.68728 6.86928 5.71579C6.85875 5.79133 6.91167 5.87487 6.94421 5.91794C7.03623 6.0399 7.17063 6.12371 7.30366 6.14217C7.32294 6.14491 7.34215 6.14614 7.36123 6.14614C7.58307 6.14614 7.78481 5.97338 7.80258 5.84588C7.8248 5.68618 7.59298 5.57974 7.36813 5.5485" fill="white"/>
<path d="M13.4377 5.55351C13.4202 5.42834 13.1975 5.39265 12.9861 5.42205C12.775 5.45144 12.5703 5.54674 12.5874 5.67219C12.6011 5.76974 12.7773 5.93627 12.9858 5.93627C13.0034 5.93627 13.0212 5.93511 13.0391 5.93258C13.1783 5.9133 13.2804 5.82491 13.329 5.77398C13.4028 5.69632 13.4456 5.60977 13.4377 5.55351" fill="white"/>
<path d="M16.9203 10.9147C16.8428 10.6803 16.5933 10.6049 16.1787 10.6905C14.9478 10.9445 14.507 10.7686 14.3623 10.662C15.3191 9.20449 16.1061 7.44263 16.5307 5.79883C16.7319 5.02017 16.8429 4.29702 16.852 3.70759C16.8621 3.06066 16.7519 2.58526 16.5247 2.29486C15.6084 1.12413 14.2637 0.496145 12.636 0.478917C11.517 0.466339 10.5715 0.752713 10.3882 0.833245C10.0022 0.737263 9.58145 0.678334 9.12335 0.670814C8.2833 0.657209 7.55714 0.858335 6.95595 1.26831C6.6948 1.1711 6.01992 0.939414 5.19457 0.806447C3.76768 0.576746 2.63381 0.750799 1.82466 1.32403C0.85916 2.00807 0.41343 3.23082 0.499773 4.95823C0.528827 5.53939 0.85998 7.32723 1.38255 9.03939C2.07042 11.2929 2.81818 12.5687 3.60491 12.8311C3.697 12.8618 3.80316 12.8833 3.92027 12.8833C4.20726 12.8833 4.55913 12.7539 4.92521 12.3138C5.37173 11.7781 5.83363 11.2555 6.31033 10.7465C6.6196 10.9125 6.95937 11.0052 7.30686 11.0145C7.30754 11.0236 7.30843 11.0327 7.30925 11.0417C7.24944 11.113 7.19086 11.1854 7.13356 11.2587C6.89278 11.5644 6.84267 11.628 6.06764 11.7876C5.84716 11.8331 5.26163 11.9538 5.25302 12.3642C5.24372 12.8127 5.9452 13.0011 6.02511 13.021C6.30363 13.0907 6.57195 13.1251 6.82784 13.1251C7.45015 13.1251 7.99781 12.9206 8.43547 12.5248C8.42201 14.1236 8.48866 15.699 8.68062 16.1789C8.83786 16.5719 9.22193 17.5322 10.4351 17.5321C10.6131 17.5321 10.8091 17.5114 11.0246 17.4652C12.2908 17.1938 12.8406 16.6342 13.0533 15.4004C13.1671 14.741 13.3624 13.1666 13.4543 12.322C13.6482 12.3825 13.8978 12.4102 14.1676 12.4101C14.7304 12.4101 15.3798 12.2906 15.787 12.1015C16.2445 11.8891 17.0701 11.3677 16.9203 10.9147V10.9147ZM13.9051 5.20776C13.9009 5.45708 13.8666 5.68343 13.8302 5.91969C13.7911 6.1738 13.7506 6.43652 13.7404 6.75544C13.7304 7.06581 13.7691 7.38848 13.8066 7.70056C13.8823 8.33087 13.9601 8.97978 13.6592 9.62007C13.6092 9.53152 13.5647 9.43999 13.5259 9.346C13.4885 9.25535 13.4073 9.10974 13.2948 8.9082C12.8574 8.12366 11.8329 6.28646 12.3573 5.53679C12.5136 5.31365 12.91 5.08422 13.9051 5.20776V5.20776ZM12.6989 0.983782C14.1574 1.01598 15.3111 1.56159 16.1279 2.60536C16.7544 3.40597 16.0645 7.04885 14.0674 10.1916C14.0473 10.1661 14.0271 10.1406 14.0068 10.1152L13.9815 10.0836C14.4976 9.23136 14.3967 8.38809 14.3069 7.64047C14.27 7.33365 14.2351 7.04386 14.244 6.77164C14.2531 6.48314 14.2913 6.23567 14.3282 5.9964C14.3735 5.70155 14.4197 5.39644 14.407 5.03678C14.4165 4.99904 14.4203 4.95447 14.4153 4.90156C14.3828 4.55666 13.989 3.52444 13.1865 2.59019C12.7474 2.07917 12.1072 1.50731 11.233 1.1216C11.609 1.04367 12.1232 0.970998 12.6989 0.983782V0.983782ZM4.5378 11.9917C4.13445 12.4766 3.85594 12.3837 3.76433 12.3532C3.16752 12.1541 2.475 10.8927 1.86444 8.89234C1.33613 7.16152 1.0274 5.42105 1.00293 4.933C0.925814 3.38949 1.29997 2.31379 2.11507 1.73571C3.44159 0.79503 5.62252 1.35807 6.49887 1.64363C6.48629 1.65607 6.47317 1.66769 6.46073 1.68034C5.02263 3.13265 5.05675 5.61397 5.0603 5.76567C5.06016 5.82419 5.06509 5.90705 5.07179 6.02101C5.09653 6.43837 5.14261 7.21511 5.01956 8.09475C4.90525 8.91217 5.15724 9.71223 5.71078 10.2898C5.76759 10.349 5.8273 10.4053 5.88969 10.4585C5.6433 10.7224 5.10781 11.306 4.5378 11.9917V11.9917ZM6.07454 9.94124C5.6284 9.47569 5.42577 8.82815 5.51854 8.16448C5.64843 7.23528 5.60051 6.42599 5.57474 5.9912C5.57111 5.93036 5.5679 5.87703 5.56605 5.83499C5.77613 5.6487 6.7497 5.12709 7.444 5.28617C7.76079 5.3587 7.95385 5.57446 8.03411 5.94553C8.44949 7.86675 8.08908 8.66749 7.79949 9.311C7.73981 9.44356 7.68341 9.56887 7.63528 9.69848L7.59795 9.79871C7.50347 10.0521 7.41556 10.2876 7.36107 10.5113C6.88677 10.51 6.42538 10.3073 6.07454 9.94117V9.94124ZM6.14735 12.5322C6.00884 12.4976 5.88429 12.4375 5.8112 12.3877C5.87225 12.359 5.98088 12.3199 6.16929 12.2811C7.08106 12.0934 7.22188 11.9609 7.52938 11.5705C7.59987 11.4809 7.67978 11.3795 7.79046 11.2559L7.7906 11.2557C7.95542 11.0712 8.03083 11.1025 8.16756 11.1592C8.27837 11.205 8.38632 11.3439 8.43007 11.4968C8.45079 11.569 8.47403 11.706 8.39794 11.8126C7.7556 12.712 6.81957 12.7005 6.14735 12.5322V12.5322ZM10.919 16.9726C9.80363 17.2116 9.4087 16.6424 9.14844 15.9918C8.98047 15.5718 8.89788 13.6777 8.95647 11.586C8.95722 11.5582 8.95326 11.5313 8.9456 11.506C8.93875 11.4561 8.92833 11.4067 8.91443 11.3582C8.82733 11.0539 8.61506 10.7993 8.36041 10.6937C8.25923 10.6518 8.07356 10.5749 7.85042 10.632C7.898 10.4359 7.98051 10.2145 8.07 9.97474L8.10753 9.87391C8.14978 9.76022 8.20283 9.64243 8.25889 9.51773C8.56195 8.84449 8.97698 7.92233 8.52653 5.83909C8.35781 5.05879 7.79436 4.67773 6.94023 4.76626C6.42819 4.81925 5.95969 5.02584 5.72602 5.14431C5.67578 5.16975 5.62984 5.19436 5.5869 5.21828C5.65212 4.4321 5.8985 2.96284 6.82018 2.03323C7.40052 1.44804 8.17337 1.159 9.11501 1.17458C10.9704 1.20494 12.1602 2.1571 12.8317 2.9506C13.4103 3.6343 13.7236 4.32306 13.8486 4.69455C12.9083 4.59891 12.2688 4.78452 11.9446 5.24802C11.2393 6.25625 12.3304 8.21308 12.8548 9.15356C12.951 9.3259 13.034 9.47487 13.0601 9.53817C13.2309 9.95205 13.452 10.2284 13.6134 10.43C13.6629 10.4918 13.7109 10.5518 13.7474 10.6042C13.4626 10.6863 12.951 10.876 12.9976 11.8242C12.96 12.3001 12.6927 14.5277 12.5568 15.3148C12.3775 16.3546 11.9949 16.7419 10.919 16.9726V16.9726ZM15.5749 11.6446C15.2836 11.7797 14.7963 11.8811 14.3333 11.9029C13.822 11.9269 13.5616 11.8456 13.5004 11.7957C13.4717 11.2047 13.6916 11.143 13.9244 11.0776C13.961 11.0674 13.9966 11.0573 14.0311 11.0453C14.0525 11.0627 14.0759 11.08 14.1016 11.097C14.5126 11.3683 15.2457 11.3975 16.2807 11.1839L16.292 11.1816C16.1524 11.3121 15.9135 11.4873 15.5749 11.6446Z" fill="white"/>
</svg>
