<svg width="18" height="18" viewBox="0 0 18 18" fill="none" xmlns="http://www.w3.org/2000/svg">
<path d="M12.4743 12.5616C12.7955 12.5285 13.0921 12.3656 13.3018 12.1069C13.5116 11.8482 13.6182 11.5139 13.5992 11.1742C13.5844 10.8253 13.4432 10.4956 13.2048 10.2531C12.9664 10.0107 12.6489 9.87387 12.3177 9.87089H12.2721C11.9323 9.88367 11.6112 10.0381 11.3793 10.3003C11.1474 10.5625 11.0237 10.911 11.0352 11.2693C11.058 11.6487 11.2051 11.957 11.4064 12.1812C10.6213 13.7918 9.44136 14.978 7.65292 15.973C6.45113 16.6366 5.181 16.8859 3.94598 16.7077C2.91222 16.5546 2.10438 16.0671 1.60791 15.2853C0.867472 14.0991 0.799124 12.8208 1.4171 11.5416C1.79401 10.7783 2.33257 10.1169 2.99101 9.60862C2.85552 9.21173 2.75045 8.80402 2.6768 8.3894C-0.651374 10.9019 -0.311532 14.3373 0.6985 15.961C1.45223 17.1462 2.99101 17.9039 4.67598 17.9039C5.12594 17.9039 5.59868 17.8689 6.05908 17.7498C8.98001 17.1572 11.1937 15.3093 12.4639 12.5846L12.4743 12.5616V12.5616Z" fill="#764ABC"/>
<path d="M16.486 9.59868C14.745 7.44252 12.1829 6.25834 9.26102 6.25834H8.87846C8.6886 5.8199 8.25099 5.54663 7.75546 5.54663H7.72129C7.01503 5.54663 6.46349 6.18727 6.48628 6.93302C6.50811 7.64373 7.08148 8.23632 7.7678 8.23632H7.82381C8.06675 8.22663 8.30189 8.14329 8.50106 7.99629C8.70023 7.84929 8.85499 7.64486 8.94681 7.40749H9.36354C11.095 7.40749 12.7344 7.94002 14.2295 8.98306C15.3744 9.77586 16.1964 10.8189 16.6568 12.0631C17.0603 13.0832 17.0385 14.0782 16.6236 14.909C15.9829 16.2123 14.9035 16.899 13.4777 16.899C12.5787 16.899 11.7016 16.6027 11.2517 16.3895C10.983 16.6247 10.5321 17.0161 10.2056 17.2533C11.1947 17.7268 12.1952 18.0001 13.1607 18.0001C15.3525 18.0001 16.9796 16.6968 17.5995 15.4405C18.2725 14.0171 18.2175 11.6237 16.4974 9.57566L16.486 9.59868V9.59868Z" fill="#764ABC"/>
<path d="M4.86664 12.988C4.88847 13.6987 5.46089 14.2913 6.14817 14.2913H6.19373C6.36261 14.2872 6.52901 14.2475 6.68314 14.1746C6.83726 14.1017 6.97599 13.997 7.09116 13.8667C7.20634 13.7364 7.29562 13.5831 7.35376 13.4159C7.4119 13.2486 7.43771 13.0708 7.42969 12.8929C7.42969 12.1822 6.84494 11.5906 6.15956 11.5906H6.11399C6.06843 11.5906 6.00198 11.5906 5.94502 11.6126C5.01283 9.95394 4.61888 8.17517 4.76602 6.25825C4.85525 4.81181 5.30426 3.55555 6.11399 2.51251C6.78798 1.62362 8.05811 1.18518 8.92386 1.16116C11.3502 1.11311 12.3621 4.3023 12.44 5.56956L13.5639 5.92392C13.3048 2.03804 11.0132 0 8.82133 0C6.7652 0 4.86664 1.57557 4.10247 3.88788C3.05636 6.96796 3.74269 9.92992 5.02422 12.3003C4.91221 12.4544 4.84481 12.7267 4.86664 12.988V12.988Z" fill="#764ABC"/>
</svg>
