<svg width="18" height="14" viewBox="0 0 18 14" fill="none" xmlns="http://www.w3.org/2000/svg">
<path d="M15.4994 7.76001C14.8715 7.76326 14.3257 7.9145 13.8687 8.13807C13.701 7.80598 13.5333 7.51014 13.5038 7.29312C13.4708 7.03999 13.4314 6.88544 13.4708 6.58297C13.5103 6.28049 13.6879 5.84976 13.6846 5.81691C13.6813 5.78405 13.6451 5.6295 13.2834 5.62626C12.9218 5.62294 12.6095 5.69528 12.5733 5.79061C12.5371 5.88593 12.4681 6.10295 12.4221 6.32646C12.3596 6.65531 11.6988 7.82897 11.3207 8.44379C11.199 8.20386 11.0938 7.99339 11.0708 7.82573C11.0379 7.57261 10.9984 7.41805 11.0379 7.11558C11.0774 6.8131 11.2549 6.38244 11.2516 6.34952C11.2483 6.31666 11.2121 6.16211 10.8505 6.15887C10.4888 6.15555 10.1765 6.22789 10.1404 6.32322C10.1042 6.41861 10.0647 6.64212 9.98913 6.85914C9.91348 7.07616 9.03566 9.0357 8.80553 9.54194C8.71252 9.74685 8.61496 9.94965 8.51292 10.1502C8.51292 10.1502 8.50961 10.1601 8.49974 10.1765C8.46768 10.2394 8.43482 10.3019 8.40117 10.3639V10.3672C8.35181 10.456 8.29921 10.5381 8.27292 10.5381C8.25317 10.5381 8.217 10.3014 8.27947 9.97923C8.41097 9.29869 8.72331 8.24003 8.72007 8.20386C8.72007 8.18411 8.77923 8.00002 8.51624 7.90462C8.25973 7.8093 8.16772 7.96709 8.14466 7.96709C8.12168 7.96709 8.10518 8.02301 8.10518 8.02301C8.10518 8.02301 8.3913 6.83284 7.55945 6.83284C7.04003 6.83284 6.32325 7.40163 5.96818 7.9145C5.56453 8.13415 5.16123 8.35444 4.75827 8.57536C4.56438 8.68387 4.36379 8.79238 4.17638 8.89426C4.16319 8.88115 4.15008 8.86465 4.13689 8.85154C3.13083 7.77644 1.27 7.01694 1.3489 5.57366C1.37851 5.0476 1.55929 3.66672 4.9227 1.98999C7.69095 0.625533 9.8938 1.00359 10.2752 1.84199C10.8209 3.03878 9.09489 5.26131 6.23448 5.58346C5.14296 5.70515 4.57086 5.2843 4.42625 5.1265C4.27502 4.96208 4.25196 4.95221 4.19605 4.98513C4.10404 5.03449 4.16319 5.18241 4.19605 5.26787C4.28157 5.49137 4.63333 5.88593 5.22841 6.07997C5.75447 6.25088 7.0334 6.34627 8.58195 5.74788C10.3146 5.07715 11.6692 3.21301 11.2714 1.65134C10.8735 0.0666224 8.2433 -0.456118 5.75447 0.428254C4.27502 0.954378 2.67056 1.78284 1.51656 2.86125C0.145552 4.14342 -0.0714693 5.258 0.0172993 5.72489C0.336274 7.38188 2.62127 8.46029 3.53526 9.25921C3.48921 9.28551 3.44642 9.30856 3.41032 9.32831C2.95329 9.55513 1.21077 10.4658 0.776803 11.4291C0.283675 12.5207 0.855771 13.3032 1.23383 13.4083C2.40756 13.7339 3.61415 13.1487 4.26183 12.182C4.90951 11.2154 4.83061 9.95948 4.53145 9.38415C4.52814 9.37759 4.52489 9.37096 4.51827 9.3644C4.63665 9.29538 4.75827 9.22304 4.87665 9.15401C5.09423 9.02539 5.31457 8.9015 5.53752 8.78244C5.42569 9.08823 5.34348 9.45317 5.30407 9.97923C5.25471 10.5974 5.50783 11.3995 5.83992 11.7151C5.98792 11.8533 6.16214 11.8566 6.27397 11.8566C6.6619 11.8566 6.83619 11.5343 7.03016 11.153C7.26685 10.6861 7.48056 10.1436 7.48056 10.1436C7.48056 10.1436 7.21425 11.61 7.93758 11.61C8.20057 11.61 8.46688 11.268 8.58526 11.0938V11.097C8.58526 11.097 8.59182 11.0872 8.605 11.0642C8.6313 11.0215 8.64773 10.9951 8.64773 10.9951V10.9886C8.75293 10.8044 8.98969 10.3869 9.34145 9.69318C9.79516 8.79894 10.2325 7.68112 10.2325 7.68112C10.2325 7.68112 10.2719 7.95398 10.4067 8.40769C10.4856 8.674 10.6499 8.9666 10.7815 9.24934C10.6763 9.39733 10.6105 9.47947 10.6105 9.47947L10.6138 9.48279C10.5283 9.59454 10.4363 9.71617 10.3343 9.83462C9.97595 10.262 9.5486 10.7519 9.48938 10.8932C9.42028 11.0609 9.43678 11.1826 9.56834 11.2812C9.66367 11.3536 9.83458 11.3634 10.0089 11.3536C10.3311 11.3305 10.5579 11.2516 10.6697 11.2023C10.844 11.1398 11.0478 11.0444 11.2384 10.9031C11.5903 10.6433 11.8039 10.2718 11.7842 9.78202C11.7744 9.5124 11.6856 9.24278 11.5771 8.98959C11.61 8.94362 11.6396 8.89758 11.6725 8.85154C12.2281 8.03943 12.6588 7.14843 12.6588 7.14843C12.6588 7.14843 12.6983 7.4213 12.833 7.87508C12.8988 8.10522 13.0336 8.35509 13.1519 8.59834C12.6292 9.02252 12.307 9.51564 12.1919 9.83786C11.9848 10.4363 12.1459 10.7058 12.4517 10.7683C12.5897 10.7979 12.787 10.7321 12.9317 10.6696C13.1158 10.6105 13.3328 10.5086 13.5399 10.3573C13.8918 10.0976 14.2303 9.73591 14.2106 9.24609C14.2007 9.02252 14.1416 8.80218 14.0594 8.58847C14.5032 8.40445 15.0753 8.3025 15.8051 8.38795C17.3702 8.57205 17.6792 9.5485 17.62 9.95956C17.5608 10.3705 17.2321 10.594 17.1236 10.6631C17.015 10.7322 16.9789 10.7552 16.9888 10.8044C17.0019 10.8768 17.0545 10.8735 17.1466 10.8604C17.2748 10.8374 17.9686 10.5283 17.9981 9.77208C18.0475 8.80549 17.1269 7.75014 15.4994 7.76001V7.76001ZM3.42674 11.8303C2.90725 12.3957 2.18399 12.6094 1.87164 12.4286C1.53631 12.2346 1.6678 11.3995 2.30561 10.8012C2.69354 10.4363 3.1933 10.0975 3.52538 9.89046C3.60097 9.84442 3.71279 9.7787 3.8476 9.69649C3.87059 9.68331 3.88377 9.67675 3.88377 9.67675L3.96267 9.6274C4.19605 10.4822 3.97254 11.2352 3.42674 11.8303V11.8303ZM7.20769 9.25921C7.02684 9.69981 6.64878 10.8275 6.41865 10.765C6.22137 10.7124 6.09967 9.8576 6.37916 9.01264C6.52053 8.58847 6.81969 8.08216 6.99399 7.88495C7.27672 7.56929 7.58907 7.46402 7.66465 7.59235C7.76005 7.76001 7.31945 8.98303 7.20769 9.25921V9.25921ZM10.3278 10.7518C10.2521 10.7913 10.1799 10.8176 10.1469 10.7979C10.1239 10.7847 10.1799 10.7321 10.1799 10.7321C10.1799 10.7321 10.5711 10.3113 10.7256 10.1206C10.8144 10.0088 10.9195 9.87734 11.0314 9.72935V9.77208C11.0314 10.2751 10.5447 10.6138 10.3277 10.7518H10.3278ZM12.7344 10.2028C12.6785 10.1633 12.6884 10.0318 12.8758 9.62084C12.9481 9.45973 13.119 9.19018 13.4117 8.93043C13.4445 9.03563 13.4676 9.13758 13.4643 9.23291C13.461 9.86747 13.0073 10.1042 12.7344 10.2028Z" fill="#CD6799"/>
</svg>
