<svg width="18" height="12" viewBox="0 0 18 12" fill="none" xmlns="http://www.w3.org/2000/svg">
<path d="M14.1429 7.71429V0H12.8572V9H18V7.71429H14.1429Z" fill="black"/>
<path d="M10.2856 0H7.71418C7.37319 0 7.04616 0.135459 6.80504 0.376577C6.56393 0.617695 6.42847 0.944722 6.42847 1.28571V7.71429C6.42847 8.05528 6.56393 8.3823 6.80504 8.62342C7.04616 8.86454 7.37319 9 7.71418 9H8.35704V10.2857C8.35704 10.6267 8.4925 10.9537 8.73362 11.1949C8.97473 11.436 9.30176 11.5714 9.64275 11.5714H10.9285V10.2857H9.64275V9H10.2856C10.6266 9 10.9536 8.86454 11.1947 8.62342C11.4359 8.3823 11.5713 8.05528 11.5713 7.71429V1.28571C11.5713 0.944722 11.4359 0.617695 11.1947 0.376577C10.9536 0.135459 10.6266 0 10.2856 0ZM7.71418 7.71429V1.28571H10.2856V7.71429H7.71418Z" fill="black"/>
<path d="M3.85714 9H0V7.71429H3.85714V5.14286H1.28571C0.944722 5.14286 0.617695 5.0074 0.376577 4.76628C0.135459 4.52516 0 4.19814 0 3.85714V1.28571C0 0.944722 0.135459 0.617695 0.376577 0.376577C0.617695 0.135459 0.944722 0 1.28571 0H5.14286V1.28571H1.28571V3.85714H3.85714C4.19814 3.85714 4.52516 3.9926 4.76628 4.23372C5.0074 4.47484 5.14286 4.80186 5.14286 5.14286V7.71429C5.14286 8.05528 5.0074 8.3823 4.76628 8.62342C4.52516 8.86454 4.19814 9 3.85714 9Z" fill="black"/>
</svg>
