<svg width="50" height="50" viewBox="0 0 50 50" fill="none" xmlns="http://www.w3.org/2000/svg">
<path d="M25 0C11.1929 0 0 11.1929 0 25C0 38.8071 11.1929 50 25 50C38.8071 50 50 38.8071 50 25C50 11.1929 38.8071 0 25 0ZM12.207 15.329H37.793V18.927L25 26.2207L12.207 18.927V15.329V15.329ZM12.207 21.228L18.7225 24.942L12.207 31.7718V21.228ZM37.793 21.228V31.7719L31.2775 24.942L37.793 21.228V21.228ZM20.5139 25.9644L25 28.5217L29.4861 25.9643L37.793 34.671H12.207L20.5139 25.9644Z" fill="white"/>
</svg>
