<svg width="18" height="18" viewBox="0 0 18 18" fill="none" xmlns="http://www.w3.org/2000/svg">
<path d="M17.6609 8.19815L9.80174 0.339457C9.34942 -0.113152 8.61534 -0.113152 8.16245 0.339457L6.53046 1.97144L8.60071 4.04169C9.0818 3.87912 9.63348 3.98818 10.017 4.37167C10.4023 4.75763 10.5106 5.31402 10.3441 5.79665L12.3392 7.79188C12.8219 7.62558 13.3789 7.73316 13.7644 8.11933C14.3032 8.65793 14.3032 9.53088 13.7644 10.0698C13.2255 10.6089 12.3525 10.6089 11.8133 10.0698C11.408 9.66412 11.3079 9.06892 11.513 8.56962L9.6524 6.70897L9.65219 11.6054C9.78707 11.6721 9.91026 11.7602 10.017 11.8663C10.5558 12.4049 10.5558 13.2779 10.017 13.8173C9.47802 14.356 8.60465 14.356 8.06647 13.8173C7.52766 13.2779 7.52766 12.405 8.06647 11.8664C8.19559 11.7372 8.34905 11.6349 8.51795 11.5653V6.62326C8.3488 6.55421 8.19526 6.45184 8.06647 6.32225C7.65823 5.91457 7.56007 5.31557 7.76925 4.8143L5.72847 2.7733L0.339616 8.1618C-0.113205 8.61483 -0.113205 9.34898 0.339616 9.80166L8.19887 17.6605C8.65134 18.1132 9.38528 18.1132 9.83831 17.6605L17.6608 9.83815C18.1135 9.38533 18.1135 8.65076 17.6608 8.19815" fill="#DE4C36"/>
</svg>
