<svg width="16" height="18" viewBox="0 0 16 18" fill="none" xmlns="http://www.w3.org/2000/svg">
<path d="M1.4445 16.2006L0 0H15.8721L14.4257 16.1981L7.92643 18L1.4445 16.2006Z" fill="#E44F26"/>
<path d="M7.93604 16.623L13.1882 15.167L14.4237 1.32495H7.93604V16.623Z" fill="#F1662A"/>
<path d="M7.936 7.33299H5.30671L5.12543 5.29835H7.936V3.31128H2.95386L3.00143 3.84485L3.48936 9.32006H7.936V7.33299V7.33299Z" fill="#EBEBEB"/>
<path d="M7.93605 12.4933L7.92705 12.4958L5.71434 11.8986L5.57291 10.314H3.57812L3.85648 13.4331L7.92705 14.5632L7.93605 14.5607V12.4933Z" fill="#EBEBEB"/>
<path d="M7.92896 7.33301V9.32008H10.3757L10.1455 11.8973L7.92896 12.4952V14.5626L12.0027 13.4331L12.0323 13.0975L12.499 7.86658L12.5479 7.33301H7.92896V7.33301Z" fill="white"/>
<path d="M7.92896 3.31128V5.29835H12.7285L12.7684 4.85221L12.859 3.84485L12.9066 3.31128H7.92896V3.31128Z" fill="white"/>
</svg>
