<svg width="14" height="18" viewBox="0 0 14 18" fill="none" xmlns="http://www.w3.org/2000/svg">
<path d="M4.27543 13.9204C4.27543 13.9204 3.5876 14.3204 4.76496 14.4557C6.19133 14.6185 6.92028 14.5952 8.49217 14.2976C8.49217 14.2976 8.90545 14.5568 9.48253 14.7812C5.95889 16.2914 1.50773 14.6937 4.27543 13.9204" fill="#5382A1"/>
<path d="M3.84475 11.9497C3.84475 11.9497 3.07327 12.5208 4.25152 12.6426C5.7752 12.7998 6.97846 12.8127 9.06062 12.4118C9.06062 12.4118 9.34861 12.7037 9.80145 12.8634C5.54109 14.1092 0.79584 12.9617 3.84475 11.9497" fill="#5382A1"/>
<path d="M7.47459 8.60678C8.34285 9.60637 7.24647 10.5059 7.24647 10.5059C7.24647 10.5059 9.45105 9.36783 8.43858 7.94266C7.49298 6.61369 6.76778 5.95327 10.6936 3.67651C10.6936 3.67651 4.53142 5.21551 7.47459 8.60673" fill="#E76F00"/>
<path d="M12.1352 15.3781C12.1352 15.3781 12.6442 15.7975 11.5745 16.1219C9.54065 16.7381 3.10917 16.9242 1.32252 16.1465C0.680286 15.8671 1.8847 15.4794 2.26353 15.398C2.65862 15.3123 2.88444 15.3283 2.88444 15.3283C2.17019 14.8251 -1.73218 16.3163 0.90225 16.7433C8.08665 17.9084 13.9987 16.2187 12.1352 15.3781Z" fill="#5382A1"/>
<path d="M4.60599 9.90796C4.60599 9.90796 1.33459 10.685 3.44754 10.9671C4.33967 11.0866 6.11814 11.0596 7.77477 10.9207C9.12865 10.8066 10.4881 10.5637 10.4881 10.5637C10.4881 10.5637 10.0107 10.7682 9.66534 11.004C6.34323 11.8778 -0.0744846 11.4713 1.77309 10.5776C3.3356 9.82228 4.60604 9.90796 4.60604 9.90796" fill="#5382A1"/>
<path d="M10.4751 13.1881C13.8522 11.4332 12.2908 9.74685 11.2009 9.97408C10.9338 10.0296 10.8147 10.0778 10.8147 10.0778C10.8147 10.0778 10.9139 9.92248 11.1032 9.85525C13.2593 9.09722 14.9175 12.0909 10.4072 13.2765C10.4072 13.2766 10.4595 13.2299 10.4751 13.1881" fill="#5382A1"/>
<path d="M8.4387 5.21157e-05C8.4387 5.21157e-05 10.309 1.87103 6.66481 4.74791C3.74259 7.05573 5.99845 8.37156 6.66361 9.87496C4.95784 8.33597 3.70601 6.98115 4.54586 5.72024C5.77847 3.86923 9.19329 2.97183 8.4387 0" fill="#E76F00"/>
<path d="M4.93786 17.9434C8.17945 18.1509 13.1572 17.8283 13.2751 16.2944C13.2751 16.2944 13.0485 16.8759 10.5961 17.3377C7.82938 17.8583 4.41701 17.7976 2.39307 17.4639C2.39312 17.4639 2.80739 17.8068 4.93791 17.9434" fill="#5382A1"/>
</svg>
