<svg width="18" height="18" viewBox="0 0 18 18" fill="none" xmlns="http://www.w3.org/2000/svg">
<rect x="1" y="7" width="4" height="4" fill="white"/>
<rect x="6" y="7" width="4" height="5" fill="white"/>
<rect x="11" y="7" width="6" height="4" fill="white"/>
<path d="M0 6H18V12.0011H9V13.0014H5.00014V12.0004H0V6ZM1.00029 11.0008H3.00021V7.99993H3.99986V11.0001H5.00014V7.00029H1.00029V11.0008ZM6.00043 7.00029V12.0011H8.00036V11.0008H10.0003V7.00029H6.00043ZM8.00036 8.00057H9V10.0011H7.99971L8.00036 8.00057ZM11.0006 7.00029V11.0008H13.0005V7.99993H14.0008V11.0001H15.0011V7.99993H16.0014V11.0001H17.0016V7.00029H11.0006Z" fill="#CB3837"/>
</svg>
