<svg width="18" height="17" viewBox="0 0 18 17" fill="none" xmlns="http://www.w3.org/2000/svg">
<path d="M14.7996 5.19074C14.608 5.12501 14.4148 5.06413 14.2202 5.00814C14.2529 4.87454 14.283 4.74257 14.3097 4.61291C14.7483 2.48378 14.4616 0.768503 13.4822 0.203753C12.5432 -0.337653 11.0075 0.226886 9.45654 1.57668C9.30369 1.70994 9.15422 1.84705 9.0083 1.98786C8.91061 1.89422 8.81119 1.8024 8.7101 1.71245C7.08462 0.269214 5.45534 -0.339059 4.47701 0.227308C3.53883 0.770402 3.26102 2.38288 3.6559 4.40071C3.69518 4.60055 3.73954 4.79937 3.78893 4.99696C3.5583 5.06249 3.33577 5.13224 3.12279 5.20649C1.21704 5.87094 0 6.9122 0 7.99227C0 9.10778 1.30655 10.2267 3.29147 10.9051C3.45239 10.9599 3.61465 11.0106 3.7781 11.0573C3.72502 11.2701 3.67789 11.4844 3.63677 11.6998C3.26032 13.6827 3.5543 15.257 4.48995 15.7967C5.45632 16.354 7.07829 15.7812 8.65758 14.4006C8.78564 14.2884 8.91088 14.173 9.03319 14.0545C9.19122 14.2069 9.35347 14.355 9.51975 14.4984C11.0496 15.8148 12.5605 16.3464 13.4952 15.8053C14.4607 15.2463 14.7745 13.555 14.3671 11.4973C14.335 11.3361 14.299 11.1757 14.2592 11.0163C14.3731 10.9825 14.4849 10.9478 14.5939 10.9116C16.6574 10.228 18 9.12268 18 7.99227C18 6.90826 16.7437 5.85997 14.7996 5.19074V5.19074ZM14.352 10.1818C14.2536 10.2144 14.1526 10.2458 14.0497 10.2764C13.8219 9.55518 13.5145 8.78835 13.1382 7.996C13.4973 7.22256 13.7929 6.4655 14.0143 5.74902C14.1984 5.80232 14.3771 5.8585 14.5493 5.91777C16.215 6.49124 17.2311 7.339 17.2311 7.99227C17.2311 8.68808 16.1338 9.59139 14.352 10.1818V10.1818ZM13.6128 11.6467C13.7929 12.5565 13.8186 13.3792 13.6993 14.0223C13.5921 14.6002 13.3765 14.9855 13.1099 15.1398C12.5427 15.4682 11.3296 15.0414 10.0213 13.9155C9.86663 13.7822 9.7157 13.6445 9.56869 13.5028C10.0759 12.9481 10.5828 12.3033 11.0775 11.5871C11.9477 11.5099 12.7698 11.3836 13.5153 11.2112C13.552 11.3594 13.5847 11.5047 13.6128 11.6467V11.6467ZM6.13659 15.0831C5.58239 15.2788 5.14097 15.2844 4.87413 15.1305C4.30636 14.8031 4.07032 13.5389 4.39228 11.8433C4.43055 11.6429 4.47437 11.4436 4.5237 11.2457C5.26099 11.4088 6.07711 11.5261 6.94934 11.5968C7.44743 12.2976 7.96894 12.9418 8.49452 13.5058C8.38283 13.6139 8.26849 13.7192 8.15161 13.8217C7.4532 14.4321 6.75338 14.8652 6.13659 15.0831V15.0831ZM3.54023 10.1775C2.66252 9.87749 1.93767 9.48761 1.44084 9.06214C0.994359 8.67986 0.769008 8.30024 0.769008 7.99227C0.769008 7.33682 1.74614 6.5008 3.37591 5.9326C3.5737 5.8637 3.7807 5.79866 3.99551 5.73763C4.22079 6.47028 4.51624 7.23634 4.8728 8.01097C4.5116 8.79707 4.21193 9.57536 3.98447 10.3167C3.83527 10.2739 3.68715 10.2275 3.54023 10.1775V10.1775ZM4.41056 4.25298C4.07229 2.52421 4.29694 1.22012 4.86232 0.892816C5.46448 0.544206 6.79605 1.04125 8.19956 2.28746C8.29108 2.36891 8.38112 2.45201 8.46963 2.53672C7.94665 3.09831 7.42992 3.73766 6.93626 4.43432C6.0897 4.51278 5.27934 4.63878 4.53431 4.8076C4.48841 4.62382 4.44715 4.43891 4.41056 4.25305V4.25298ZM12.175 6.17026C11.999 5.86629 11.8165 5.56616 11.6276 5.27005C12.2019 5.34268 12.7522 5.43908 13.2689 5.55692C13.1138 6.05418 12.9204 6.574 12.6928 7.10696C12.5264 6.79131 12.3538 6.47902 12.175 6.17026V6.17026ZM9.00865 3.08628C9.3633 3.47054 9.71852 3.89952 10.0679 4.36499C9.35916 4.33152 8.64922 4.33137 7.94046 4.36457C8.2902 3.90339 8.64844 3.47497 9.00865 3.08628ZM5.82202 6.17553C5.64541 6.4818 5.47599 6.79216 5.31387 7.10633C5.08999 6.57526 4.89839 6.05305 4.74195 5.54877C5.25551 5.43388 5.80317 5.33994 6.37383 5.26864C6.18282 5.56656 5.99883 5.86891 5.82202 6.17546V6.17553ZM6.39021 10.7706C5.80064 10.7048 5.24475 10.6157 4.73133 10.5039C4.89023 9.99062 5.08605 9.4573 5.31478 8.91484C5.47754 9.22925 5.64768 9.53979 5.82504 9.8462C6.00743 10.1612 6.19629 10.4697 6.39021 10.7706ZM9.02988 12.9524C8.66538 12.5592 8.30187 12.1242 7.94686 11.6563C8.29153 11.6698 8.64288 11.6767 9 11.6767C9.36689 11.6767 9.72956 11.6685 10.0865 11.6526C9.73603 12.1289 9.38215 12.5646 9.02988 12.9524ZM12.7001 8.88714C12.9407 9.43557 13.1434 9.96608 13.3045 10.4706C12.7826 10.5897 12.2191 10.6856 11.6254 10.7568C11.8156 10.4552 11.9999 10.1499 12.178 9.84093C12.3591 9.52691 12.5331 9.2089 12.7001 8.88714V8.88714ZM11.5119 9.45674C11.2393 9.93039 10.9513 10.395 10.6484 10.85C10.0998 10.8888 9.54998 10.9081 9 10.9078C8.43982 10.9078 7.89497 10.8904 7.3703 10.8564C7.05953 10.4025 6.76605 9.93703 6.49048 9.46096H6.49055C6.21627 8.98741 5.96008 8.50361 5.72252 8.01062C5.95947 7.51751 6.21489 7.03349 6.48823 6.55958L6.48816 6.55965C6.76139 6.08562 7.05253 5.62214 7.36095 5.17021C7.89623 5.12971 8.44516 5.10861 8.99993 5.10861H9C9.5573 5.10861 10.1069 5.12992 10.6421 5.1707C10.9474 5.62195 11.2367 6.08384 11.5094 6.5555C11.7836 7.02837 12.0424 7.51003 12.2854 7.99972C12.0449 8.49442 11.7869 8.9804 11.5119 9.45674V9.45674ZM13.0982 0.869894C13.7009 1.21752 13.9353 2.61934 13.5566 4.45766C13.5324 4.57494 13.5053 4.6944 13.4757 4.81555C12.7289 4.64314 11.918 4.51496 11.0689 4.4353C10.5744 3.73098 10.0619 3.09064 9.54738 2.5363C9.68222 2.40633 9.82026 2.27973 9.96138 2.15661C11.2903 1.00018 12.5323 0.543574 13.0982 0.869894V0.869894ZM9 6.38493C9.8877 6.38493 10.6073 7.10457 10.6073 7.99227C10.6073 8.87996 9.8877 9.59961 9 9.59961C8.1123 9.59961 7.39266 8.87996 7.39266 7.99227C7.39266 7.10457 8.1123 6.38493 9 6.38493V6.38493Z" fill="#00D8FF"/>
</svg>
