<svg width="1920" height="490" viewBox="0 0 1920 490" fill="none" xmlns="http://www.w3.org/2000/svg">
<path id="smoke" fill-rule="evenodd" clip-rule="evenodd" d="M0.000353902 38.0015C50.0676 98.0015 122.161 159.501 183.24 200.5C252.603 247.06 318.333 276.289 379.323 303.409C420.732 321.823 459.956 339.265 496.648 360.5C594.275 417 708.242 461.366 850.927 484.001C989.608 506.001 1174.5 460.031 1226.92 435.296C1336.06 383.796 1446.28 356.55 1685.51 333.796C1780.14 324.796 1900.98 309.5 1920 304V253.819C1870.02 270.518 1726.18 280.859 1611.54 289.101C1545.86 293.823 1489.77 297.856 1466.41 302C1352.26 322.249 1280.17 337.5 1120.46 393.5C1040.07 421.687 740.963 439.749 716.432 358.5C698.564 299.32 845.64 279.703 961.1 264.303C1004.16 258.56 1042.82 253.403 1066.89 247C1099.62 238.292 1130.33 228.365 1161.04 218.439C1237.9 193.596 1314.77 168.751 1423.35 163C1493.88 159.265 1585.65 167.773 1680.01 176.522C1762.14 184.137 1846.23 191.934 1920 192V134.001C1823.08 143.787 1737.51 131.611 1650.46 119.225C1572.94 108.194 1494.25 96.9973 1405.33 101.001C1300.95 105.702 1203.92 135.632 1104.05 166.439C1023.33 191.34 940.748 216.814 850.927 230C843.394 231.106 835.623 232.255 827.646 233.434C728.373 248.11 597.208 267.5 496.648 267.5C490.737 267.5 484.793 267.628 478.732 267.759C428.621 268.839 370.525 270.092 257.337 200.5C145.624 131.814 119.274 107.771 64.4693 57.7622C47.0646 41.8807 26.7901 23.3804 0.00012277 0C-0.000153792 24.2665 7.03514e-05 34.1494 0.000462413 36.6448L0.000353902 38.0015Z" fill="white" fill-opacity="0.04"/>
</svg>
